<?xml version="1.0" encoding="UTF-8"?>
<svg xmlns="http://www.w3.org/2000/svg" xmlns:xlink="http://www.w3.org/1999/xlink" width="25px" height="17px" viewBox="0 0 25 17" version="1.1">
<defs>
<clipPath id="clip1">
  <path d="M 0.0078125 0.00390625 L 25 0.00390625 L 25 17 L 0.0078125 17 Z M 0.0078125 0.00390625 "/>
</clipPath>
</defs>
<g id="surface1">
<g clip-path="url(#clip1)" clip-rule="nonzero">
<path style=" stroke:none;fill-rule:nonzero;fill:rgb(100%,100%,100%);fill-opacity:1;" d="M 0.0078125 0.00390625 L 25.007812 0.00390625 L 25.007812 17.003906 L 0.0078125 17.003906 Z M 0.0078125 0.00390625 "/>
<path style=" stroke:none;fill-rule:nonzero;fill:rgb(81.568627%,12.54902%,15.294118%);fill-opacity:1;" d="M 25.007812 6.804688 L 13.757812 6.804688 L 13.757812 0.00390625 L 11.257812 0.00390625 L 11.257812 6.804688 L 0.0078125 6.804688 L 0.0078125 10.203125 L 11.257812 10.203125 L 11.257812 17.003906 L 13.757812 17.003906 L 13.757812 10.203125 L 25.007812 10.203125 "/>
<path style=" stroke:none;fill-rule:nonzero;fill:rgb(81.568627%,12.54902%,15.294118%);fill-opacity:1;" d="M 16.675781 11.335938 L 18.539062 11.335938 L 25.007812 15.734375 L 25.007812 17.003906 M 8.34375 5.667969 L 6.480469 5.667969 L 0.0078125 1.269531 L 0.0078125 0.00390625 Z M 8.34375 11.335938 L 10.207031 11.335938 L 1.871094 17.003906 L 0.0078125 17.003906 Z M 16.675781 5.667969 L 14.8125 5.667969 L 23.144531 0.00390625 L 25.007812 0.00390625 Z M 16.675781 5.667969 "/>
<path style=" stroke:none;fill-rule:nonzero;fill:rgb(9.411765%,19.607843%,35.686275%);fill-opacity:1;" d="M 0.0078125 11.335938 L 0.0078125 15.101562 L 5.546875 11.335938 M 25.007812 11.335938 L 25.007812 15.101562 L 19.472656 11.335938 Z M 0.0078125 5.667969 L 0.0078125 1.902344 L 5.546875 5.667969 Z M 25.007812 5.667969 L 25.007812 1.902344 L 19.472656 5.667969 Z M 10.425781 17.003906 L 10.425781 11.820312 L 2.804688 17.003906 Z M 14.59375 17.003906 L 14.59375 11.820312 L 22.214844 17.003906 Z M 10.425781 0.00390625 L 10.425781 5.183594 L 2.804688 0.00390625 Z M 14.59375 0.00390625 L 14.59375 5.183594 L 22.214844 0.00390625 Z M 14.59375 0.00390625 "/>
</g>
</g>
</svg>
